<svg id="logo_label" data-name="logo&amp;label" xmlns="http://www.w3.org/2000/svg" viewBox="0 0 100.5 100.5"><defs><style>.cls-1{font-size:10.15px;fill:#231f20;font-family:Roboto-Thin, Roboto;}.cls-2{letter-spacing:0.01em;}.cls-3{letter-spacing:0.01em;}.cls-4{letter-spacing:-0.01em;}.cls-5{letter-spacing:-0.04em;}.cls-6{fill:#feeef1;}.cls-10,.cls-6,.cls-7,.cls-8,.cls-9{stroke:#231f20;}.cls-10,.cls-6{stroke-linecap:round;stroke-linejoin:round;stroke-width:0.5px;}.cls-10,.cls-7,.cls-8,.cls-9{fill:none;}.cls-7{stroke-miterlimit:10;}.cls-7,.cls-8,.cls-9{stroke-width:0.2px;}.cls-8,.cls-9{stroke-linejoin:bevel;}.cls-9{stroke-linecap:square;}</style></defs><title>logo</title><text class="cls-1" transform="translate(35.17 48.08)"><tspan class="cls-2">M</tspan><tspan x="8.79" y="0">AR</tspan><tspan class="cls-3" x="21.61" y="0">I</tspan><tspan x="24.35" y="0">A</tspan></text><text class="cls-1" transform="translate(20.33 60.35)">SERGUSH<tspan class="cls-4" x="45.45" y="0">O</tspan><tspan class="cls-5" x="52.1" y="0">V</tspan><tspan x="57.79" y="0">A</tspan></text><path class="cls-6" d="M299.67,137.51a50,50,0,0,0,45.5-29.25l-91.09-.18A50,50,0,0,0,299.67,137.51Z" transform="translate(-249.65 -37.26)"/><path class="cls-6" d="M299.67,37.51a50,50,0,0,0-46.5,31.57h93A50,50,0,0,0,299.67,37.51Z" transform="translate(-249.65 -37.26)"/><path class="cls-7" d="M321.63,132.44" transform="translate(-249.65 -37.26)"/><polyline class="cls-8" points="75.95 71 80.77 79.56 79.32 90.77 63.18 71 71.98 95.18 46.98 82.13 46.1 100.1 29.31 70.85"/><polyline class="cls-7" points="85.28 71 80.77 79.56 85.51 85.47"/><polyline class="cls-9" points="46.1 100.1 59.84 88.84 63.18 71"/><polyline class="cls-9" points="95.53 71 80.77 79.56 63.18 71"/><polyline class="cls-8" points="18.68 89.2 34.79 80.43 24.07 93 40.06 89.6 46.98 82.13 7.54 76.63 29.31 70.88 46.98 82.13"/><polyline class="cls-7" points="35.73 2.33 40.36 14.97 40.36 1.18"/><polyline class="cls-8" points="52.31 19.23 71.98 9.96 81.36 11.29 81.93 25.1 67.72 3.47 52.31 19.23 22.42 8.56 18.68 29.11 61.05 1.47 52.31 19.23"/><polyline class="cls-8" points="91.64 22.53 81.93 25.1 52.31 19.23 18.68 29.11 10.03 20.23 21.51 13.52 40.36 14.97"/><line class="cls-7" x1="71.98" y1="9.96" x2="65.77" y2="21.9"/><polyline class="cls-8" points="53.27 71 46.98 82.13 63.18 71"/><path class="cls-10" d="M346.39,69.08h-93c-.13.32-.25.65-.37,1A49.53,49.53,0,0,0,250.1,83a.84.84,0,0,0,0,.11c0,.27-.05.54-.07.8q-.13,1.78-.13,3.61a50.47,50.47,0,0,0,.39,6.32.35.35,0,0,0,0,.07c0,.24.06.48.1.71s.07.51.11.76a49.52,49.52,0,0,0,3.72,12.55l.07.16h0l91.09.18a50.15,50.15,0,0,0,1-39.18Z" transform="translate(-249.65 -37.26)"/><line class="cls-8" x1="95.52" y1="31.82" x2="95.52" y2="29.5"/><polyline class="cls-8" points="89.87 31.82 81.93 25.1 55.06 31.82 52.31 19.24 35.73 31.82"/><polyline class="cls-7" points="7.36 24.17 18.68 29.11 23.17 31.82"/><line class="cls-7" x1="3.51" y1="31.82" x2="18.68" y2="29.11"/><line class="cls-8" x1="18.68" y1="78.18" x2="29.31" y2="70.88"/></svg>